<?xml version="1.0" standalone="no"?>
<!DOCTYPE svg PUBLIC "-//W3C//DTD SVG 20010904//EN"
 "http://www.w3.org/TR/2001/REC-SVG-20010904/DTD/svg10.dtd">
<svg version="1.0" xmlns="http://www.w3.org/2000/svg"
 width="405.000000pt" height="405.000000pt" viewBox="0 0 405.000000 405.000000"
 preserveAspectRatio="xMidYMid meet">
<metadata>
Created by potrace 1.14, written by Peter Selinger 2001-2017
</metadata>
<g transform="translate(0.000000,405.000000) scale(0.100000,-0.100000)"
fill="#000000" stroke="none">
<path d="M1250 4021 c0 -5 28 -27 63 -50 134 -91 297 -247 281 -272 -3 -5 2
-9 11 -9 8 0 20 -11 24 -24 5 -13 17 -26 25 -29 9 -4 16 -13 16 -20 0 -8 9
-22 20 -32 11 -10 20 -26 20 -37 0 -10 4 -18 9 -18 9 0 100 -180 119 -235 47
-139 64 -218 62 -287 -1 -29 4 -40 22 -49 23 -12 38 -28 38 -41 0 -7 -33 -20
-60 -23 -8 -1 -22 -4 -30 -7 -8 -4 -44 -10 -80 -15 l-65 -9 75 -36 c83 -39
150 -99 150 -132 0 -20 -47 -59 -75 -61 -36 -4 -95 -19 -95 -24 0 -3 24 -12
53 -19 46 -11 87 -40 87 -62 0 -4 -10 -10 -22 -13 -21 -6 -21 -7 -3 -27 18
-20 19 -26 30 -217 4 -76 3 -83 -16 -94 -20 -10 -20 -11 -2 -24 15 -11 18 -29
20 -107 1 -51 -2 -108 -5 -126 l-7 -33 -70 74 c-67 71 -165 213 -165 240 0 7
-9 31 -21 52 -35 68 -75 242 -78 338 -1 48 0 87 4 87 18 0 75 -39 124 -84 48
-45 60 -48 26 -6 -7 8 -27 42 -44 75 -18 32 -37 62 -42 66 -8 4 -7 14 1 30 13
23 13 23 -13 6 -22 -14 -25 -14 -21 -2 4 8 1 15 -5 15 -8 0 -10 16 -6 53 10
89 33 152 81 217 25 34 43 64 40 67 -2 3 -25 -15 -50 -40 -48 -48 -111 -171
-136 -262 -7 -27 -20 -58 -29 -68 -9 -11 -14 -31 -12 -45 3 -23 1 -24 -13 -13
-31 25 -108 161 -111 194 -2 21 -8 33 -19 35 -12 3 -15 10 -11 23 4 11 2 25
-3 32 -5 7 -20 53 -32 102 -12 50 -35 124 -50 166 -26 71 -123 267 -156 313
-21 31 -18 -2 5 -44 45 -85 92 -229 110 -343 6 -37 5 -50 -5 -54 -10 -3 -10
-11 -3 -31 14 -36 14 -169 1 -185 -7 -8 -7 -18 -2 -27 14 -21 12 -30 -5 -30
-10 0 -15 -10 -15 -28 0 -15 -9 -45 -20 -67 -24 -47 -24 -45 -4 -45 34 0 6
-36 -50 -65 -50 -25 -70 -30 -130 -29 -112 1 -203 39 -345 141 -24 17 -24 17
-13 -3 15 -28 148 -153 178 -166 13 -6 24 -17 24 -25 0 -16 2 -16 33 -4 23 9
25 7 23 -13 -2 -18 1 -22 16 -18 10 2 45 -3 78 -12 33 -10 64 -15 69 -11 5 3
12 1 16 -5 3 -5 19 -10 35 -10 16 0 40 -4 53 -9 21 -8 26 -6 30 10 8 30 42 23
87 -19 51 -49 52 -76 5 -92 -42 -14 -181 -11 -269 5 -36 7 -66 11 -66 9 0 -18
167 -74 240 -80 47 -4 106 -12 133 -19 4 -2 16 -3 27 -4 10 0 25 -11 31 -23
10 -19 8 -25 -15 -44 -35 -31 -89 -40 -155 -26 -30 7 -56 10 -59 8 -13 -13
140 -65 175 -60 12 2 25 -1 28 -6 4 -6 21 -8 40 -4 26 4 38 1 54 -15 28 -28
26 -45 -5 -66 -37 -24 -106 -21 -149 5 -19 12 -35 17 -35 12 0 -14 49 -52 66
-52 8 0 14 -4 14 -9 0 -11 54 -32 90 -36 150 -14 185 -49 185 -185 0 -77 -3
-92 -34 -153 -31 -61 -55 -89 -138 -154 l-28 -22 28 5 c15 2 52 18 82 34 30
16 55 26 56 22 1 -4 4 4 8 18 4 14 14 25 24 25 9 0 23 9 31 20 12 17 17 18 40
7 36 -16 38 -15 26 7 -17 33 -11 67 18 99 15 18 38 33 52 34 25 3 26 1 15 -42
-6 -24 -5 -25 52 -26 82 -1 125 -10 206 -44 136 -57 215 -130 242 -224 12 -43
27 -123 39 -224 4 -25 15 -42 17 -24 1 7 2 15 3 20 1 4 5 23 9 43 9 44 40 79
71 79 16 0 29 -12 46 -42 20 -36 24 -57 24 -131 l1 -89 26 32 c45 53 83 33
104 -53 l7 -28 -33 20 c-52 32 -53 25 -4 -23 53 -51 60 -74 15 -51 -46 24 -47
18 -3 -27 22 -24 43 -53 46 -66 l5 -23 -34 20 c-37 22 -44 16 -16 -15 9 -10
24 -28 32 -38 14 -18 13 -19 -7 -14 -27 7 -29 -8 -8 -36 11 -15 12 -22 3 -27
-8 -5 -7 -14 5 -33 21 -31 22 -50 2 -42 -20 7 -19 0 6 -40 18 -29 18 -35 6
-40 -14 -5 -14 -10 -1 -40 13 -31 13 -34 -2 -34 -12 0 -14 -4 -6 -12 5 -7 13
-23 16 -35 6 -18 3 -23 -10 -23 -16 0 -15 -3 4 -22 14 -16 18 -28 12 -39 -6
-10 -4 -25 5 -42 12 -23 12 -28 0 -35 -12 -6 -12 -11 -1 -34 9 -16 10 -28 5
-30 -7 -2 -7 -13 0 -31 6 -15 7 -27 3 -27 -8 0 -5 -62 4 -89 11 -34 19 10 22
127 2 70 4 141 4 157 0 17 -1 115 -2 220 -1 161 1 191 14 201 18 13 21 34 5
34 -6 0 -8 9 -3 22 3 12 6 42 4 67 -6 145 3 361 15 361 5 0 -6 13 -25 29 -30
25 -33 32 -24 52 6 13 10 33 8 44 -3 20 -16 387 -15 415 3 54 7 75 16 73 5 -1
12 -9 15 -19 5 -12 9 -14 14 -6 5 8 16 6 40 -8 19 -10 36 -16 39 -14 2 3 19
-13 37 -36 31 -39 33 -40 51 -24 14 12 19 13 19 4 0 -7 9 -22 20 -34 53 -55
80 -90 80 -103 0 -7 7 -16 15 -19 25 -10 125 -229 140 -304 0 -3 7 -26 14 -52
9 -31 12 -77 9 -128 -3 -44 -1 -80 3 -80 12 0 39 97 45 160 3 30 7 71 10 90 3
19 7 359 8 755 2 526 6 720 15 723 6 2 11 26 11 59 l0 54 33 -22 c17 -13 38
-30 44 -39 24 -29 54 -124 56 -172 1 -27 5 -52 10 -55 9 -5 6 55 -7 156 -9 66
-104 333 -116 326 -5 -3 -13 9 -18 25 -6 16 -22 45 -35 62 -14 18 -28 43 -32
56 -3 12 -14 22 -23 22 -21 1 -68 75 -64 101 3 17 0 18 -21 8 -23 -11 -30 -7
-86 52 -67 71 -67 64 0 -66 20 -39 39 -86 42 -105 3 -19 13 -55 22 -80 12 -33
18 -83 19 -185 2 -77 1 -144 -1 -148 -3 -4 -6 -34 -8 -67 -5 -71 -14 -153 -18
-157 -9 -8 -228 74 -267 100 -46 31 -109 94 -111 112 0 6 -2 17 -4 25 -1 9 -6
92 -9 185 -9 243 -15 354 -22 402 -3 25 -1 44 6 48 8 5 8 10 0 20 -6 7 -13 38
-16 69 -3 31 -17 89 -30 129 l-23 72 6 -65 c3 -36 7 -74 9 -85 6 -27 5 -210
-1 -238 -2 -12 -7 -51 -9 -87 -3 -36 -11 -90 -17 -120 -7 -30 -12 -58 -11 -62
1 -5 -2 -8 -7 -8 -5 0 -12 -11 -15 -25 -4 -14 -13 -25 -22 -25 -12 0 -13 -4
-4 -20 8 -15 6 -24 -10 -40 -23 -23 -46 -17 -56 13 -4 12 -17 38 -30 57 -13
19 -26 50 -30 68 -4 18 -11 35 -15 38 -5 3 -9 16 -9 29 0 17 -4 23 -14 19 -8
-3 -16 4 -20 20 -3 14 -10 26 -15 26 -5 0 -1 -26 9 -57 10 -32 20 -75 23 -97
3 -21 10 -43 16 -49 6 -6 11 -19 11 -30 0 -14 -5 -17 -22 -12 -21 7 -21 7 3
-31 21 -35 24 -52 26 -158 1 -107 4 -120 22 -133 28 -19 26 -31 -4 -43 -22 -8
-23 -12 -14 -40 13 -35 6 -60 -15 -60 -22 0 -99 45 -111 65 -8 13 -3 22 25 46
l35 29 -46 -6 c-48 -7 -79 10 -79 42 0 8 30 45 68 81 37 36 58 63 47 58 -32
-12 -78 -21 -105 -20 -40 2 -89 33 -96 61 -11 42 13 50 85 28 23 -7 22 -4 -10
30 -44 48 -169 262 -169 289 0 8 -7 20 -15 27 -8 7 -14 20 -13 28 2 10 -7 18
-22 22 -17 4 -25 13 -25 29 0 12 -5 25 -11 29 -6 4 -30 36 -54 72 -65 97 -160
220 -170 220 -5 0 -22 19 -39 43 -49 70 -203 216 -262 249 -17 9 -36 23 -42
31 -14 17 -127 60 -127 48z m1484 -1316 c3 -20 59 -51 242 -136 22 -10 52 -31
67 -47 l27 -28 -27 -99 c-14 -55 -27 -101 -28 -103 -1 -1 -22 8 -46 22 -24 13
-66 29 -93 35 -63 15 -121 56 -144 102 -20 40 -22 100 -4 122 9 11 8 18 -8 32
-21 19 -27 45 -10 45 7 0 7 6 0 19 -5 11 -10 34 -10 51 0 29 1 30 16 16 9 -9
17 -23 18 -31z m-446 -170 c16 -13 50 -33 74 -44 l45 -19 -3 -61 c-1 -34 -5
-65 -8 -70 -3 -4 6 -13 19 -19 32 -15 36 -63 6 -57 -17 3 -19 0 -11 -21 9 -22
7 -24 -18 -24 -41 0 -124 43 -155 79 -36 43 -35 86 3 130 34 40 33 46 -4 32
-55 -21 -71 8 -35 65 25 40 47 43 87 9z m465 -146 c18 -16 66 -49 107 -72 41
-22 88 -54 103 -69 16 -15 32 -28 36 -28 12 0 -16 -114 -29 -118 -5 -2 -10
-13 -10 -23 0 -11 -4 -17 -10 -14 -6 4 -10 -5 -10 -20 0 -22 -3 -25 -21 -20
-18 6 -20 4 -11 -10 11 -21 4 -55 -12 -56 -25 -3 -43 5 -89 37 -26 19 -56 34
-66 34 -20 0 -58 52 -67 92 -3 13 -7 74 -9 137 -3 62 -7 117 -10 121 -3 4 2
13 10 20 12 10 15 9 16 -6 0 -11 2 -26 4 -34 1 -8 6 -46 10 -85 4 -38 8 -72
10 -74 9 -8 16 73 13 143 -1 42 -2 76 0 76 2 0 17 -14 35 -31z m-463 -159 c3
-4 31 -18 63 -33 31 -15 57 -30 58 -34 1 -5 2 -64 3 -133 2 -69 6 -134 11
-144 8 -17 5 -19 -29 -13 -38 6 -39 1 -10 -33 16 -19 17 -47 10 -155 -3 -44
-6 -84 -6 -90 -1 -20 -40 41 -46 73 -5 23 -12 32 -26 32 -16 0 -19 5 -14 23 4
19 0 26 -18 35 -28 12 -57 92 -50 137 4 25 2 24 -11 -10 -23 -61 -37 -85 -51
-85 -20 0 -25 29 -6 39 14 8 17 31 19 168 2 168 8 223 23 223 6 0 10 5 10 11
0 5 -4 8 -9 5 -5 -3 -14 1 -21 8 -9 11 -9 20 0 36 12 22 12 22 53 -16 23 -22
44 -41 47 -44z m716 20 c0 -11 -3 -20 -7 -20 -4 0 -9 9 -12 20 -3 12 0 20 7
20 6 0 12 -9 12 -20z"/>
</g>
</svg>
